<svg width="336" height="90" viewBox="0 0 336 90" fill="none" xmlns="http://www.w3.org/2000/svg">
<rect x="9" y="76" width="25.48" height="200" transform="rotate(-90 9 76)" fill="#1B4AA6"/>
<rect x="22.4832" y="72.864" width="22.344" height="173.034" transform="rotate(-90 22.4832 72.864)" fill="#02B3FF"/>
<path d="M110.124 72.08V48.952C124.564 45.5938 133.605 44.1949 153.944 43.856C175.429 44.4261 183.866 45.7217 195.517 48.952L191.022 68.552C177.816 64.2018 149.449 65.808 149.449 65.808C149.449 65.808 123.122 67.7565 110.124 72.08Z" fill="white"/>
<path d="M107.876 72.08L107.876 48.952C93.4361 45.5938 84.3953 44.1949 64.0562 43.856C42.5706 44.4261 34.1342 45.7217 22.4831 48.952L26.9775 68.552C40.1838 64.2018 68.5506 65.808 68.5506 65.808C68.5506 65.808 94.8782 67.7565 107.876 72.08Z" fill="white"/>
<path d="M42.8887 36H27.1387V35.0859H29.9512V15.8203H27.1387V14.9062H36.3145V15.8203H33.3262V35.0859H37.9316C38.2598 35.0859 38.5762 35.0508 38.8809 34.9805C40.1699 34.6523 41.084 33.457 41.623 31.3945L42.291 28.8633H43.0645L42.8887 36ZM51.6777 35.1211C51.8184 35.1211 51.9355 35.1328 52.0293 35.1562C52.3809 35.2031 52.5566 35.4844 52.5566 36H44.3652V35.1211C45.0684 35.1211 45.5957 35.0742 45.9473 34.9805C46.6738 34.7695 47.0371 34.125 47.0371 33.0469V21.9023H44.3652V21.0234H50.0254V35.1211H51.6777ZM50.4121 15.9961C50.4121 16.3008 50.3418 16.6055 50.2012 16.9102C49.8262 17.6836 49.2168 18.0703 48.373 18.0703C48.0684 18.0703 47.7754 18.0117 47.4941 17.8945C46.6973 17.5195 46.2988 16.8867 46.2988 15.9961C46.2988 15.6914 46.3691 15.3867 46.5098 15.082C46.8848 14.3086 47.5059 13.9219 48.373 13.9219C48.6777 13.9219 48.9824 13.9922 49.2871 14.1328C50.0371 14.5313 50.4121 15.1523 50.4121 15.9961ZM62.7168 35.1211C62.834 35.1211 62.9512 35.1328 63.0684 35.1562C63.3965 35.2031 63.5605 35.4844 63.5605 36H54.5957V35.1211C55.2988 35.1211 55.8262 35.0742 56.1777 34.9805C56.8809 34.7695 57.2324 34.125 57.2324 33.0469V21.9023H54.7012V21.0234H57.2324V20.4961C57.2324 18.5742 57.6074 16.9805 58.3574 15.7148C59.459 13.8867 61.1582 12.9727 63.4551 12.9727C64.3691 12.9727 65.1895 13.125 65.916 13.4297C67.0879 13.9219 67.6738 14.625 67.6738 15.5391C67.6738 15.6563 67.6621 15.7734 67.6387 15.8906C67.4746 16.5703 66.9824 16.9102 66.1621 16.9102C65.9043 16.9102 65.6582 16.8281 65.4238 16.6641C65.2363 16.5 64.9199 16.0078 64.4746 15.1875C64.0059 14.2969 63.4199 13.8516 62.7168 13.8516C62.3887 13.8516 62.0957 13.9219 61.8379 14.0625C60.7598 14.625 60.2207 16.875 60.2207 20.8125V21.0234H64.2637V21.9023H60.2207V35.1211H62.7168ZM73.2988 21.5156C72.7363 21.5156 72.209 21.6445 71.7168 21.9023C70.123 22.7227 69.2793 24.5156 69.1855 27.2812L72.6309 27.3867C73.6621 27.4102 74.4707 27.3516 75.0566 27.2109C76.0879 26.9531 76.6035 26.25 76.6035 25.1016C76.6035 24.6094 76.5332 24.1406 76.3926 23.6953C75.9238 22.2422 74.8926 21.5156 73.2988 21.5156ZM79.5215 32.5898C79.3809 32.8945 79.2285 33.1992 79.0645 33.5039C77.8691 35.4023 75.959 36.3516 73.334 36.3516C71.7637 36.3516 70.3574 35.9648 69.1152 35.1914C66.9355 33.7852 65.8457 31.582 65.8457 28.582C65.8457 26.8711 66.2207 25.3594 66.9707 24.0469C68.3066 21.7734 70.3926 20.6367 73.2285 20.6367C74.7285 20.6367 76.0645 20.9531 77.2363 21.5859C78.9238 22.5469 79.7676 23.8594 79.7676 25.5234C79.7676 26.3203 79.498 26.9531 78.959 27.4219C78.1387 28.0781 76.2285 28.3828 73.2285 28.3359L69.1855 28.2656C69.209 29.1328 69.2793 29.9297 69.3965 30.6562C69.959 33.7969 71.4824 35.3672 73.9668 35.3672C74.3184 35.3672 74.6816 35.332 75.0566 35.2617C76.6973 34.9102 77.8926 33.9141 78.6426 32.2734L79.5215 32.5898ZM106.979 34.418C104.822 35.6836 102.549 36.3281 100.158 36.3516C96.9004 36.3516 94.2637 35.2734 92.248 33.1172C90.3262 31.0312 89.3652 28.4531 89.3652 25.3828C89.3652 22.8516 90.0566 20.6133 91.4395 18.668C93.4316 15.9258 96.3027 14.5547 100.053 14.5547C100.545 14.5547 101.037 14.5781 101.529 14.625C103.732 14.8594 105.502 15.4922 106.838 16.5234C106.838 15.9609 106.861 15.5391 106.908 15.2578C107.025 14.9062 107.354 14.7305 107.893 14.7305L107.998 21.3047H107.084C105.959 17.5078 103.686 15.5859 100.264 15.5391C99.0449 15.5391 97.9434 15.8437 96.959 16.4531C94.5215 17.9531 93.3027 20.9414 93.3027 25.418C93.3027 27.1055 93.4785 28.6172 93.8301 29.9531C94.7676 33.5625 96.8652 35.3672 100.123 35.3672C103.662 35.3438 106.018 33.375 107.189 29.4609H108.104V36.1758C107.822 36.1758 107.611 36.1523 107.471 36.1055C107.143 35.9648 106.979 35.4023 106.979 34.418ZM114.186 28.4766C114.209 33.0938 115.686 35.4258 118.615 35.4727C121.451 35.4492 122.881 33.0703 122.904 28.3359C122.881 23.8359 121.428 21.5625 118.545 21.5156C115.662 21.5391 114.209 23.8594 114.186 28.4766ZM118.65 20.6367C120.314 20.6367 121.803 21.082 123.115 21.9727C125.225 23.4258 126.279 25.582 126.279 28.4414C126.279 30.5977 125.6 32.4141 124.24 33.8906C122.74 35.5312 120.83 36.3516 118.51 36.3516C116.822 36.3516 115.299 35.8594 113.939 34.875C111.877 33.375 110.846 31.1953 110.846 28.3359C110.846 26.25 111.502 24.4922 112.814 23.0625C114.338 21.4453 116.283 20.6367 118.65 20.6367ZM145.756 35.1211C145.896 35.1211 146.025 35.1328 146.143 35.1562C146.447 35.2266 146.6 35.5078 146.6 36H141.396L141.15 32.5547C140.916 33.1406 140.611 33.6797 140.236 34.1719C139.111 35.625 137.658 36.3516 135.877 36.3516C132.549 36.3281 130.873 34.3359 130.85 30.375V21.9023H128.283V21.0234H133.873V30.9023C133.873 31.207 133.896 31.5117 133.943 31.8164C134.201 33.7852 135.244 34.7695 137.072 34.7695C137.705 34.7695 138.314 34.582 138.9 34.207C140.33 33.293 141.057 31.8047 141.08 29.7422V21.9023H138.443V21.0234H144.104V35.1211H145.756ZM156.619 35.1211C156.76 35.1211 156.877 35.1328 156.971 35.1562C157.322 35.2031 157.498 35.4844 157.498 36H148.568V35.1211C149.271 35.1211 149.787 35.0742 150.115 34.9805C150.748 34.7695 151.064 34.125 151.064 33.0469V21.9023H148.568V21.0234H153.877L154.018 24.3984C154.299 23.7422 154.674 23.1562 155.143 22.6406C156.268 21.4219 157.557 20.8125 159.01 20.8125C159.268 20.8125 159.514 20.8359 159.748 20.8828C160.826 21.1172 161.365 21.7734 161.365 22.8516C161.365 23.0156 161.342 23.1914 161.295 23.3789C161.061 24.1055 160.557 24.4688 159.783 24.4688C159.619 24.4688 159.455 24.4453 159.291 24.3984C158.916 24.2812 158.541 23.8945 158.166 23.2383C157.838 22.6523 157.498 22.3594 157.146 22.3594C156.865 22.3594 156.525 22.5234 156.127 22.8516C154.932 23.8594 154.252 25.3711 154.088 27.3867V35.1211H156.619ZM168.256 35.4023C169.873 35.4023 170.928 34.8984 171.42 33.8906C171.584 33.5625 171.666 33.2227 171.666 32.8711C171.666 31.8398 170.939 30.9609 169.486 30.2344C169.182 30.0703 168.678 29.8359 167.975 29.5312C166.1 28.7344 164.846 27.9844 164.213 27.2812C163.557 26.5312 163.229 25.6523 163.229 24.6445C163.229 22.9805 164.143 21.7969 165.971 21.0938C166.838 20.7891 167.775 20.6367 168.783 20.6367C170.377 20.6367 171.725 20.9648 172.826 21.6211C172.826 20.9414 172.99 20.5547 173.318 20.4609C173.436 20.4375 173.588 20.4258 173.775 20.4258V24.8203H172.826C172.779 22.6641 171.584 21.5742 169.24 21.5508C167.553 21.5508 166.498 22.0664 166.076 23.0977C165.982 23.3789 165.936 23.6602 165.936 23.9414C165.936 24.9492 166.65 25.8047 168.08 26.5078C168.408 26.6719 168.912 26.8945 169.592 27.1758C171.49 27.9492 172.756 28.6758 173.389 29.3555C174.068 30.1289 174.408 31.043 174.408 32.0977C174.408 34.043 173.389 35.332 171.35 35.9648C170.553 36.2227 169.686 36.3516 168.748 36.3516C166.99 36.3281 165.467 35.918 164.178 35.1211C164.178 35.7305 164.025 36.082 163.721 36.1758C163.58 36.1992 163.416 36.2109 163.229 36.2109V30.8672H164.248C164.295 33.8672 165.631 35.3789 168.256 35.4023ZM184.533 21.5156C183.971 21.5156 183.443 21.6445 182.951 21.9023C181.357 22.7227 180.514 24.5156 180.42 27.2812L183.865 27.3867C184.896 27.4102 185.705 27.3516 186.291 27.2109C187.322 26.9531 187.838 26.25 187.838 25.1016C187.838 24.6094 187.768 24.1406 187.627 23.6953C187.158 22.2422 186.127 21.5156 184.533 21.5156ZM190.756 32.5898C190.615 32.8945 190.463 33.1992 190.299 33.5039C189.104 35.4023 187.193 36.3516 184.568 36.3516C182.998 36.3516 181.592 35.9648 180.35 35.1914C178.17 33.7852 177.08 31.582 177.08 28.582C177.08 26.8711 177.455 25.3594 178.205 24.0469C179.541 21.7734 181.627 20.6367 184.463 20.6367C185.963 20.6367 187.299 20.9531 188.471 21.5859C190.158 22.5469 191.002 23.8594 191.002 25.5234C191.002 26.3203 190.732 26.9531 190.193 27.4219C189.373 28.0781 187.463 28.3828 184.463 28.3359L180.42 28.2656C180.443 29.1328 180.514 29.9297 180.631 30.6562C181.193 33.7969 182.717 35.3672 185.201 35.3672C185.553 35.3672 185.916 35.332 186.291 35.2617C187.932 34.9102 189.127 33.9141 189.877 32.2734L190.756 32.5898Z" fill="white"/>
</svg>
